<?xml version="1.0" encoding="UTF-8" standalone="no"?>
<svg
   width="308.7612359841165"
   height="304.915625"
   viewBox="0 0 106.00782394174519 104.68749999999999"
   xmlns="http://www.w3.org/2000/svg"
   xmlns:sodipodi="http://sodipodi.sourceforge.net/DTD/sodipodi-0.dtd"
   xmlns:inkscape="http://www.inkscape.org/namespaces/inkscape">
  <defs />
  <g
     transform="matrix(0.9820592540669653,0,0,0.9820592540669653,-0.054560523427421584,0)"
     fill="#ff4a3f">
    <path d="M53 15C53 8.373 46.627 3 40 3H15C8.373 3 3 8.373 3 15v74c0 6.627 5.373 12 12 12h25c6.627 0 13-5.373 13-12V57h18c6.627 0 12-5.373 12-12V27c0-6.627-5.373-12-12-12H53z"/>
  </g>
  <g
     transform="matrix(2.284354285447385,0,0,2.284354285447385,27.980055421585643,-5.609520280720151)"
     fill="#ffffff">
    <path d="M9 20C9 12.268 15.268 6 23 6h30c7.732 0 14 6.268 14 14s-6.268 14-14 14H23c-7.732 0-14-6.268-14-14z"/>
  </g>
</svg>
